<?xml version="1.0" encoding="UTF-8" standalone="no"?>
<!DOCTYPE svg PUBLIC "-//W3C//DTD SVG 1.1//EN" "http://www.w3.org/Graphics/SVG/1.1/DTD/svg11.dtd">
<svg width="100%" height="100%" viewBox="0 0 512 512" version="1.1" xmlns="http://www.w3.org/2000/svg" xmlns:xlink="http://www.w3.org/1999/xlink" xml:space="preserve" xmlns:serif="http://www.serif.com/" style="fill-rule:evenodd;clip-rule:evenodd;stroke-miterlimit:10;">
    <g transform="matrix(1,0,0,1,-0.0243449,12.2202)">
        <g transform="matrix(0.905776,0,0,0.904453,24.1214,4.91772)">
            <g transform="matrix(4.67649,0,0,4.67649,203.42,89.7137)">
                <path d="M0,33.271L11.355,8.115L14.407,1.312L14.292,1.051L11.36,-5.491L11.355,-5.485L8.423,1.051L8.308,1.312L8.308,1.318L-8.486,38.762L18.993,38.762L16.37,33.257L0,33.271Z" style="fill:rgb(33,65,109);fill-rule:nonzero;"/>
            </g>
            <g transform="matrix(4.67649,0,0,4.67649,285.067,271.27)">
                <path d="M0,-30.708L-0.005,-30.697L-3.052,-23.899L0.161,-16.811L-6.306,-16.803L-8.785,-11.254L2.253,-11.321L7.599,-0.009L13.514,0L0,-30.708Z" style="fill:rgb(33,65,109);fill-rule:nonzero;"/>
            </g>
        </g>
        <g transform="matrix(4.16667,0,0,4.16667,-241.637,-76.7662)">
            <g transform="matrix(1,0,0,1,87.016,92.149)">
                <text x="0px" y="0px" style="font-family:'Helvetica-Bold', 'Helvetica';font-weight:700;font-size:14.4px;fill:rgb(33,65,109);">Isósceles</text>
            </g>
            <g transform="matrix(1,0,0,1,97.033,106.626)">
                <text x="0px" y="0px" style="font-family:'Helvetica-Bold', 'Helvetica';font-weight:700;font-size:14.4px;fill:rgb(33,65,109);">Global</text>
            </g>
        </g>
        <g transform="matrix(4.16667,0,0,4.16667,120.922,423.735)">
            <text x="0px" y="0px" style="font-family:'Helvetica';font-size:7.68px;fill:rgb(33,65,109);">CONSTRUCTORA</text>
        </g>
        <g transform="matrix(4.16667,0,0,4.16667,122.976,385.745)">
            <path d="M0,0L63.863,0" style="fill:none;fill-rule:nonzero;stroke:rgb(33,65,109);stroke-width:1px;"/>
        </g>
    </g>
</svg>
